<svg xmlns="http://www.w3.org/2000/svg" xmlns:xlink="http://www.w3.org/1999/xlink" width="33.532" height="20.303" viewBox="0 0 33.532 20.303">
  <defs>
    <clipPath id="clip-path">
      <rect id="Rectangle_5738" data-name="Rectangle 5738" width="33.532" height="20.303" fill="#fff"/>
    </clipPath>
  </defs>
  <g id="Group_10931" data-name="Group 10931" clip-path="url(#clip-path)">
    <path id="Path_6109" data-name="Path 6109" d="M0,95.3a6.733,6.733,0,0,1,1.339-3.05,6.221,6.221,0,0,1,6.744-2.019c.374.123.379.126.189.457q-1.708,2.979-3.419,5.955c-.038.066-.074.134-.116.2-.142.214-.072.272.166.271.97-.008,1.941,0,2.911,0q2.061,0,4.121,0c.385,0,.4.016.317.39a6.323,6.323,0,0,1-5.347,4.834A6.266,6.266,0,0,1,.039,97.126.841.841,0,0,0,0,97Z" transform="translate(0 -82.071)" fill="#fff"/>
    <path id="Path_6110" data-name="Path 6110" d="M241.456,96.018a6.129,6.129,0,0,1,1.979-4.539c.286-.273.305-.271.51.082.885,1.528,1.772,3.054,2.647,4.587.14.245.25.336.517.149a8.7,8.7,0,0,1,1.017-.59c.239-.122.275-.241.135-.478-.8-1.362-1.589-2.732-2.382-4.1l-.311-.538c-.2-.338-.191-.354.168-.47a6.023,6.023,0,0,1,4.728.359,6.218,6.218,0,0,1-1.414,11.613,6.225,6.225,0,0,1-7.533-5.13,8.027,8.027,0,0,1-.063-.947" transform="translate(-220.352 -81.953)" fill="#fff"/>
    <path id="Path_6111" data-name="Path 6111" d="M89.6,0h3.206c.46,0,.461,0,.462.447q0,.556,0,1.112c0,.492,0,.493-.48.494H89.844c-.406,0-.409.007-.2.364Q90.786,4.4,91.932,6.385a1.908,1.908,0,0,0,2.675.756c1.409-.785,2.8-1.609,4.2-2.4.229-.13.208-.245.095-.438-.755-1.289-1.5-2.582-2.249-3.875-.232-.4-.221-.42.237-.42,1.919,0,3.838-.007,5.757,0a2.985,2.985,0,0,1,1.762,5.407c-.21.148-.327.143-.453-.1-.217-.415-.458-.818-.7-1.22a.282.282,0,0,1,.049-.419.864.864,0,0,0,.228-1.042.9.9,0,0,0-.872-.575c-.807,0-1.614.007-2.42-.006-.293,0-.238.1-.135.278.452.771.89,1.551,1.348,2.318a.515.515,0,0,1,.007.6q-3.023,5.24-6.03,10.49c-.207.361-.231.363-.443,0q-4.456-7.7-8.909-15.4c-.172-.3-.155-.329.184-.33,1.112,0,2.224,0,3.336,0m8.027,7.822-.038-.039c-.448.257-.9.507-1.344.774a5.208,5.208,0,0,1-2.291.883c-.277.021-.163.158-.094.278.4.689.8,1.374,1.191,2.063.115.2.2.192.31,0,.233-.418.474-.832.713-1.247l1.554-2.708" transform="translate(-78.459 0)" fill="#fff"/>
    <path id="Path_6112" data-name="Path 6112" d="M93.213,110.613c-.632,0-1.264,0-1.9,0-.251,0-.282-.081-.162-.288q.967-1.668,1.923-3.344c.114-.2.218-.2.376-.05A6.257,6.257,0,0,1,95.4,110.3c.051.24-.021.315-.254.312-.643-.008-1.286,0-1.929,0" transform="translate(-83.126 -97.491)" fill="#fff"/>
  </g>
</svg>
