<svg xmlns="http://www.w3.org/2000/svg" xmlns:xlink="http://www.w3.org/1999/xlink" width="24.532" height="19.168" viewBox="0 0 24.532 19.168">
  <defs>
    <clipPath id="clip-path">
      <rect id="Rectangle_5737" data-name="Rectangle 5737" width="24.532" height="19.168" fill="none"/>
    </clipPath>
  </defs>
  <g id="Group_10929" data-name="Group 10929" clip-path="url(#clip-path)">
    <path id="Path_6102" data-name="Path 6102" d="M0,99.328c.064-.254.11-.516.2-.762A3.041,3.041,0,0,1,2.75,96.494a4.073,4.073,0,0,1,.69-.055q8.816,0,17.633,0a3.7,3.7,0,0,1,1.882.463,3.15,3.15,0,0,1,1.559,2.7c.054.739.033.74-.706.74-1.029,0-2.058-.005-3.086,0a.684.684,0,1,0,.044,1.366q1.687,0,3.373,0c.383,0,.383,0,.383.376,0,.606-.007,1.212,0,1.818,0,.209-.065.276-.274.275q-2.823-.009-5.646,0c-.222,0-.288-.076-.288-.291a7.413,7.413,0,0,0-.133-1.973,3.007,3.007,0,0,0-2.594-2.289,3.706,3.706,0,0,0-.475-.047c-1.914,0-3.828-.007-5.742,0a3.325,3.325,0,0,0-1.624.433,3.033,3.033,0,0,0-1.515,2.314,10.4,10.4,0,0,0-.048,1.576c0,.185-.047.275-.255.275-1.938-.006-3.876,0-5.814,0A1.167,1.167,0,0,1,0,104.162v-2.441c.111,0,.223-.011.334-.011,1.147,0,2.294,0,3.441,0a.686.686,0,1,0-.047-1.368c-1.243,0-2.485,0-3.728-.005Z" transform="translate(0 -90.272)" fill="#fff"/>
    <path id="Path_6103" data-name="Path 6103" d="M0,238.9q2.5,0,5,0c.3,0,.318.021.318.309a7.055,7.055,0,0,1-.075,1.477,2.583,2.583,0,0,1-2.48,2.1,2.59,2.59,0,0,1-2.689-1.961c-.023-.084-.048-.168-.072-.252Z" transform="translate(0 -223.618)" fill="#fff"/>
    <path id="Path_6104" data-name="Path 6104" d="M0,60.637a.824.824,0,0,1,.812-.518c.454,0,.907,0,1.361,0,.2,0,.275.085.277.291.006.7.012.693-.635.893a3.914,3.914,0,0,0-.558.209A.9.9,0,0,1,0,61.115Z" transform="translate(0 -56.272)" fill="#fff"/>
    <path id="Path_6105" data-name="Path 6105" d="M68.112,4.768H60.026c-.339,0-.343,0-.34-.347a8.028,8.028,0,0,1,.133-1.973,3.118,3.118,0,0,1,2.8-2.4c.334-.032.667-.043,1-.043H72.9a4.306,4.306,0,0,1,1.773.329A3.08,3.08,0,0,1,76.511,2.89a15.319,15.319,0,0,1,.052,1.576c.012.25-.084.307-.318.307q-4.067-.01-8.133,0" transform="translate(-55.869 -0.001)" fill="#fff"/>
    <path id="Path_6106" data-name="Path 6106" d="M122.823,169.969h-4.376c-.319,0-.33-.006-.325-.317a9.852,9.852,0,0,1,.03-1.17,1.756,1.756,0,0,1,1.879-1.735q2.785-.04,5.571,0a1.813,1.813,0,0,1,1.912,1.991c.012.31-.007.622.008.932.011.227-.068.3-.3.3-1.467-.008-2.933,0-4.4,0" transform="translate(-110.567 -156.066)" fill="#fff"/>
    <path id="Path_6107" data-name="Path 6107" d="M302.75,238.86H305c.4,0,.4,0,.4.387a8.271,8.271,0,0,1-.049,1.383,2.662,2.662,0,0,1-5.25-.221c-.046-.43-.02-.86-.036-1.289-.007-.2.086-.263.274-.262.805,0,1.61,0,2.415,0" transform="translate(-280.874 -223.585)" fill="#fff"/>
    <path id="Path_6108" data-name="Path 6108" d="M345.963,60.09a5.614,5.614,0,0,1,.836.022.737.737,0,0,1-.066,1.468,1.111,1.111,0,0,1-.579-.1,3.961,3.961,0,0,0-.975-.317.217.217,0,0,1-.2-.246c0-.191.007-.383,0-.574s.085-.245.245-.246c.247,0,.494,0,.742,0" transform="translate(-322.918 -56.243)" fill="#fff"/>
  </g>
</svg>
