<svg id="Group_126" data-name="Group 126" xmlns="http://www.w3.org/2000/svg" xmlns:xlink="http://www.w3.org/1999/xlink" width="37.83" height="36.905" viewBox="0 0 37.83 36.905">
  <defs>
    <clipPath id="clip-path">
      <rect id="Rectangle_181" data-name="Rectangle 181" width="37.83" height="36.905" fill="#fff"/>
    </clipPath>
  </defs>
  <g id="Group_125" data-name="Group 125" clip-path="url(#clip-path)">
    <path id="Path_141" data-name="Path 141" d="M34.959,110.79c0-1.409.085-2.825-.025-4.225a4.338,4.338,0,0,1,1.572-3.8c4.191-3.9,8.282-7.9,12.417-11.857,1.243-1.189,1.867-1.179,3.121.046C56.329,95.133,60.59,99.341,64.9,103.5a3.317,3.317,0,0,1,1.1,2.671c-.059,3.3-.013,6.6-.025,9.907-.006,1.836-.409,2.225-2.274,2.233-2.025.009-4.051.017-6.076,0-1.482-.016-1.978-.493-2.036-1.978-.113-2.9-.232-5.805-.269-8.709-.016-1.217-.428-1.768-1.708-1.729-2.112.064-4.227.008-6.34.02-1.625.009-1.877.272-1.883,1.96-.01,2.818,0,5.636-.007,8.454-.007,1.6-.358,1.969-1.922,1.982q-3.236.028-6.473,0c-1.518-.015-1.989-.469-2.014-1.966-.03-1.849-.007-3.7-.009-5.548" transform="translate(-31.578 -81.414)" fill="#fff"/>
    <path id="Path_142" data-name="Path 142" d="M37.83,18.613a3.626,3.626,0,0,1-1.848,2.321c-.844.5-1.476-.114-2.071-.679q-6.753-6.407-13.518-12.8c-1.33-1.26-1.481-1.261-2.8-.011q-6.7,6.364-13.409,12.726c-1.273,1.207-1.925,1.2-3.114-.021C-.33,18.712-.36,18.194,1,16.877Q9.292,8.833,17.609.812c1.125-1.086,1.672-1.081,2.8.006q8.211,7.94,16.408,15.9a2.515,2.515,0,0,1,1.018,1.9" transform="translate(0 0)" fill="#fff"/>
    <path id="Path_143" data-name="Path 143" d="M276.258,15.377c0,1.008.044,2.019-.013,3.024-.049.869-.5,1.14-1.177.48-1.475-1.438-2.956-2.875-4.35-4.389a2.735,2.735,0,0,1-.269-2.986c.348-.891,1.245-.619,1.963-.668.044,0,.088,0,.132,0,3.736-.026,3.736-.026,3.736,3.752v.789h-.021" transform="translate(-244.31 -9.797)" fill="#fff"/>
  </g>
</svg>
