<svg xmlns="http://www.w3.org/2000/svg" xmlns:xlink="http://www.w3.org/1999/xlink" width="89.004" height="23.023" viewBox="0 0 89.004 23.023">
  <defs>
    <linearGradient id="linear-gradient" x1="0.129" x2="1" y2="0.257" gradientUnits="objectBoundingBox">
      <stop offset="0" stop-color="#c400ff"/>
      <stop offset="1" stop-color="#ff2661"/>
    </linearGradient>
  </defs>
  <path id="Path_6937" data-name="Path 6937" d="M17.749-17.5V-3.68L6.433-17.5H2.075V5.263h5.2V-8.557L18.627,5.263h4.325V-17.5Zm27.8,4.227V-17.5H28.35V5.263h5.268V-3.029H44.154V-7.257H33.618v-6.016ZM54.007,5.263h5.268V-13.208H66.56V-17.5H46.723v4.292h7.284ZM69.031-8.265h3.642l.358-9.235H68.706ZM82.819,5.523c5.236,0,8.26-2.309,8.26-5.561,0-6.894-10.569-4-10.569-6.992,0-.911.976-1.626,3.252-1.626a10.047,10.047,0,0,1,5.04,1.3l1.691-3.61a14.386,14.386,0,0,0-6.731-1.528c-5.105,0-8.1,2.341-8.1,5.658,0,6.992,10.569,4.065,10.569,6.926,0,.976-.878,1.593-3.219,1.593A11.97,11.97,0,0,1,76.933,0L75.242,3.637A15.019,15.019,0,0,0,82.819,5.523Z" transform="translate(-2.075 17.5)" fill="url(#linear-gradient)"/>
</svg>
