<svg xmlns="http://www.w3.org/2000/svg" xmlns:xlink="http://www.w3.org/1999/xlink" width="215.384" height="39.643" viewBox="0 0 215.384 39.643">
  <defs>
    <clipPath id="clip-path">
      <rect id="Rectangle_8750" data-name="Rectangle 8750" width="215.384" height="39.643" fill="#fff"/>
    </clipPath>
  </defs>
  <g id="Group_12146" data-name="Group 12146" transform="translate(0 -3)">
    <g id="Group_12145" data-name="Group 12145" transform="translate(0 3)" clip-path="url(#clip-path)">
      <path id="Path_6939" data-name="Path 6939" d="M1040.753,10.786c0,2.908-.055,5.817.016,8.723.077,3.155-1.986,5.383-5.42,5.4a5.834,5.834,0,0,1-5.793-3.859c-2.352-5.26-4.754-10.5-7.137-15.744-.382-.842-.951-1.445-1.964-1.19-.938.237-1.043,1.015-1.042,1.835,0,5.779-.019,11.557.025,17.336.007.912-.216,1.271-1.146,1.148-1.006-.133-2.361.456-2.94-.252-.495-.6-.165-1.9-.166-2.886-.007-5.19.032-10.38-.013-15.569-.032-3.675,1.5-5.1,3.9-5.53,3.138-.571,5.6-.009,7.114,3.32q3.559,7.817,7.1,15.643c.35.77.668,1.573,1.767,1.541,1.011-.029,1.435-.388,1.458-1.5.032-1.545.01-3.091.01-4.637,0-4.343.022-8.687-.02-13.029-.008-.817.185-1.132,1.031-1.029,1.047.129,2.455-.456,3.058.235.518.594.165,1.959.169,2.983.01,2.356,0,4.711,0,7.067" transform="translate(-825.479 -0.001)" fill="#fff"/>
      <path id="Path_6940" data-name="Path 6940" d="M128.822,14.466c-3.614-2.4-4.324-7.113-1.536-9.952a6.651,6.651,0,0,1,4.685-1.9c4.349-.117,8.7-.064,13.052-.1.572-.005.787.158.75.745a12.98,12.98,0,0,0,0,2.206c.1.942-.164,1.26-1.181,1.238-3.391-.071-6.785-.027-10.178-.027a7.831,7.831,0,0,0-2.078.231,2.742,2.742,0,0,0-2.264,3.219,2.694,2.694,0,0,0,2.829,2.4c3.835.042,7.671.066,11.505,0,1.007-.016,1.214.276,1.192,1.221-.063,2.651-.019,2.642-2.626,2.652-3.392.014-6.785,0-10.175.086a2.539,2.539,0,0,0-2.813,2.476,2.712,2.712,0,0,0,2.329,3.184,8.124,8.124,0,0,0,2.082.211c3.43,0,6.86.016,10.289-.02.808-.009,1.223.125,1.118,1.065-.109.976.3,2.275-.2,2.87-.523.627-1.865.186-2.847.192-3.43.022-6.86.045-10.289-.011a7.066,7.066,0,0,1-5.369-2.127,6.408,6.408,0,0,1,1.716-9.852" transform="translate(-102.054 -2.04)" fill="#fff"/>
      <path id="Path_6941" data-name="Path 6941" d="M689.155,14.351c0,3.645-.019,7.29.017,10.935.007.725-.188.98-.925.926a18.529,18.529,0,0,0-2.544,0c-.7.046-.859-.22-.85-.882.037-2.724-.015-5.45.036-8.173.015-.789-.222-.98-.987-.971q-5.2.06-10.4,0c-.776-.009-.992.208-.978.981.048,2.724,0,5.449.036,8.173.009.676-.175.917-.865.873a24.546,24.546,0,0,0-2.655,0c-.59.027-.748-.2-.747-.764q.023-11.211,0-22.423c0-.585.193-.773.764-.749a23.891,23.891,0,0,0,2.655,0c.722-.05.853.251.846.895-.031,2.614.013,5.229-.031,7.842-.012.734.2.932.932.925q5.257-.048,10.515.018c.75.009.928-.24.917-.947-.039-2.614,0-5.228-.032-7.842-.009-.653.139-.934.848-.889,1.1.071,2.54-.352,3.219.2.714.575.211,2.07.223,3.161.032,2.909.011,5.817.011,8.726" transform="translate(-543.462 -1.773)" fill="#fff"/>
      <path id="Path_6942" data-name="Path 6942" d="M433.632,26.292h-2.4c-2.441,0-2.427-.007-3.545-2.237-.9-1.8-1.867-3.578-2.768-5.384a4.14,4.14,0,0,0-3.831-2.327c-1.326-.061-2.657,0-3.982-.064-.72-.035-.932.18-.92.911.045,2.723,0,5.448.032,8.172.009.686-.12,1.008-.9.944-1.058-.087-2.445.329-3.1-.2-.691-.558-.2-2-.208-3.045-.022-6.553,0-13.106-.031-19.658,0-.794.14-1.129,1.011-1.044,1.021.1,2.367-.314,3,.2.667.542.187,1.933.2,2.951q.051,3.036,0,6.074c-.013.659.145.929.853.883,1.139-.075,2.286-.11,3.426-.079a4.061,4.061,0,0,0,4-2.546c1.115-2.232,2.283-4.439,3.4-6.671a1.251,1.251,0,0,1,1.357-.812c1.167.069,2.34.019,3.687.019-1.783,3.2-3.082,6.477-5.011,9.419a6.436,6.436,0,0,1-2.584,2.172c.283.576.883.541,1.3.806a6.769,6.769,0,0,1,2.336,2.57c1.544,2.909,3.057,5.835,4.684,8.947" transform="translate(-334.924 -1.867)" fill="#fff"/>
      <path id="Path_6943" data-name="Path 6943" d="M799.228,24.674l5.883-14.884q1.213-3.069,2.427-6.138A4.662,4.662,0,0,1,812.421.32a8.393,8.393,0,0,1,2.529.17,4.6,4.6,0,0,1,3.068,2.924q3.866,10.2,7.771,20.384c.306.793.129.924-.625.887a23.524,23.524,0,0,0-2.876.006c-.731.054-1.032-.262-1.268-.893q-2.894-7.74-5.842-15.46c-.359-.938-.964-1.772-1.249-2.753a1.187,1.187,0,0,0-1.19-.959,1.334,1.334,0,0,0-1.3.992Q810.108,9,808.773,12.378c-1.5,3.8-3.008,7.587-4.479,11.392a1.18,1.18,0,0,1-1.36.926c-1.173-.081-2.356-.021-3.706-.021" transform="translate(-649.945 -0.249)" fill="#fff"/>
      <path id="Path_6944" data-name="Path 6944" d="M278.644,24.593c-1.482,0-2.874,0-4.266,0-.711,0-.634-.626-.783-1.016q-3.4-8.894-6.756-17.807c-.283-.75-.618-1.325-1.559-1.2-.718.1-.928.658-1.143,1.2-2.343,5.931-4.694,11.859-7,17.8-.293.756-.63,1.117-1.485,1.033a15.47,15.47,0,0,0-2.652,0c-.922.069-.912-.236-.617-.973q4.025-10.062,7.983-20.15C261.1,1.629,262.6.078,265.756.216c2.6.114,3.989.939,4.89,3.3q3.911,10.23,7.8,20.469c.063.164.109.335.2.613" transform="translate(-205.098 -0.168)" fill="#fff"/>
      <path id="Path_6945" data-name="Path 6945" d="M6.714,6.06c-1.918,0-3.836-.022-5.753.012C.314,6.084.027,5.936.081,5.22c.08-1.056-.336-2.44.192-3.093.558-.689,2-.2,3.052-.207,3.208-.021,6.416-.018,9.624.028,2.972.044,5.467,1.081,6.6,4.011a7.79,7.79,0,0,1-1.559,8.7,6.237,6.237,0,0,1-4.659,1.907c-2.582.005-5.164.044-7.744-.011-.995-.021-1.287.355-1.271,1.292.042,2.391-.016,4.784.032,7.176.014.7-.2.885-.868.845-.919-.055-1.844-.039-2.765-.006-.5.018-.612-.164-.608-.635C.131,22.1.08,18.971.14,15.844a3.04,3.04,0,0,1,3.371-3.25c3.06-.023,6.121,0,9.182-.013a2.864,2.864,0,0,0,2.888-1.808,3.4,3.4,0,0,0-.507-3.726,3.7,3.7,0,0,0-2.939-.987c-1.806-.03-3.614-.008-5.421-.008Z" transform="translate(0 -1.43)" fill="#fff"/>
      <path id="Path_6946" data-name="Path 6946" d="M546.956,26.406c-1.835-.19-4.072.213-6.317-.338a8.821,8.821,0,0,1-6.924-7.142,17.762,17.762,0,0,1,.616-10.844,8.585,8.585,0,0,1,7.944-5.516c3.453-.231,6.932-.075,10.4-.114.564-.006.794.153.761.746a18.1,18.1,0,0,0,0,2.428c.062.782-.224.992-.99.988-2.987-.018-5.977-.051-8.96.075-4.3.182-5.588,2.526-5.952,5.993a15.053,15.053,0,0,0,.119,4.4c.655,3.433,2.214,4.927,5.723,5.113,2.943.156,5.9.1,8.85.069.935-.01,1.352.2,1.213,1.215a9.319,9.319,0,0,0-.006,2.095c.066.717-.232.86-.882.846-1.733-.039-3.468-.013-5.6-.013" transform="translate(-433.571 -1.981)" fill="#fff"/>
      <path id="Path_6947" data-name="Path 6947" d="M961.1,14.178c0-3.645.018-7.29-.015-10.934-.006-.7.155-.982.9-.925,1.06.081,2.448-.333,3.1.2.7.56.207,2,.21,3.051.022,6.553,0,13.107.031,19.66,0,.814-.177,1.115-1.025,1.038-1.02-.092-2.362.317-2.993-.194-.669-.541-.2-1.929-.205-2.945-.03-2.982-.011-5.964-.01-8.946" transform="translate(-781.469 -1.821)" fill="#fff"/>
      <path id="Path_6948" data-name="Path 6948" d="M828.234,199.389h32.077a4.471,4.471,0,0,1,.553,0c.3.038.766-.157.779.348.016.611-.52.335-.832.4a2.229,2.229,0,0,1-.441.005H795.995a.987.987,0,0,1-.221,0c-.343-.081-.96.226-.933-.4.026-.6.635-.346.984-.347q16.2-.021,32.409-.011" transform="translate(-646.377 -162.111)" fill="#fff"/>
      <path id="Path_6949" data-name="Path 6949" d="M32.371,199.579h30.55c.258,0,.516,0,.775,0s.432.093.441.374c.01.3-.2.36-.434.37-.258.011-.516.009-.774.009H1.718c-.221,0-.443.005-.664-.006s-.44-.075-.44-.37.186-.372.432-.378.516,0,.775,0h30.55" transform="translate(-0.499 -162.3)" fill="#fff"/>
      <path id="Path_6950" data-name="Path 6950" d="M545.072,173.459c-.4,1.621-.826,3.237-1.2,4.864a.869.869,0,0,1-1.048.805c-.58-.026-.91-.093-1.061-.762-.491-2.176-1.066-4.333-1.607-6.49.938-.361,1.284.013,1.463.879a29.776,29.776,0,0,0,1.3,4.489c.391-1.555.821-3.1,1.153-4.669.147-.694.479-.828,1.125-.842a.919.919,0,0,1,1.1.867,38.269,38.269,0,0,0,1.326,4.7c.384-1.521.8-3.033,1.135-4.565.169-.782.449-1.223,1.45-.86-.568,2.255-1.144,4.54-1.72,6.825-.168.669-.713.323-1.1.4-.49.1-.734-.134-.847-.608-.4-1.673-.822-3.341-1.235-5.01l-.239-.025" transform="translate(-439.265 -139.656)" fill="#fff"/>
      <path id="Path_6951" data-name="Path 6951" d="M368.459,173.385c0,1.531,0,3.062,0,4.592,0,.454.073.879-.637.853s-.5-.5-.505-.858c-.014-1.841-.022-3.682.007-5.522.006-.349-.27-.9.319-1.016a1.276,1.276,0,0,1,1.529.53c1.052,1.662,2.193,3.269,3.49,5.181,0-1.848,0-3.369,0-4.89,0-.431-.111-.9.619-.868.683.028.513.488.516.854.01,1.841.022,3.682-.011,5.522-.006.343.3.889-.264,1.021a1.247,1.247,0,0,1-1.514-.529c-1.066-1.664-2.213-3.277-3.328-4.91l-.223.04" transform="translate(-298.667 -139.367)" fill="#fff"/>
      <path id="Path_6952" data-name="Path 6952" d="M741.522,174.98c1.741-.93,2.507-3.085,4.8-3.02-.991.936-1.975,1.88-2.977,2.8-.389.359-.422.637-.024,1.034,1.057,1.054,2.075,2.146,3.2,3.318-.777.024-1.461.219-2.115-.539-.829-.962-1.809-1.8-2.776-2.736a10.155,10.155,0,0,0-.09,2.647c0,.551-.21.674-.714.679-.568.005-.549-.319-.547-.712q.012-2.975,0-5.95c0-.384-.037-.721.539-.713.5.007.737.125.71.679-.04.824-.01,1.652-.01,2.509" transform="translate(-602.008 -139.704)" fill="#fff"/>
      <path id="Path_6953" data-name="Path 6953" d="M429.8,175.862h-1c-1.211,0-1.4.318-.8,1.382s1.649,1.069,2.689,1.167c.484.046,1.382-.374,1.383.351,0,.887-.928.363-1.416.4-1.492.111-3,.091-3.816-1.516a4.666,4.666,0,0,1,.006-4.355,2.373,2.373,0,0,1,2.384-1.456c.809.04,1.623,0,2.434,0,.227,0,.448.021.474.324.03.339-.156.456-.462.466-.625.021-1.251.046-1.876.071a2.474,2.474,0,0,0-1.35.432,1.585,1.585,0,0,0-.7,1.533c.109.562.748.253,1.143.274.882.048,1.77.021,2.655.015.33,0,.576.061.6.462.028.451-.269.446-.575.446Z" transform="translate(-346.675 -139.737)" fill="#fff"/>
      <path id="Path_6954" data-name="Path 6954" d="M484.436,175.888c0-.808-.04-1.619.014-2.424.047-.7-.239-.908-.894-.848-.474.044-.956.006-1.435,0-.241,0-.422-.061-.438-.356s.119-.4.384-.4q2.871,0,5.742,0c.228,0,.441.041.456.343.019.372-.237.385-.507.418-.68.083-1.654-.343-1.974.2-.343.579-.127,1.495-.133,2.263-.01,1.138-.018,2.278.008,3.416.011.486-.076.744-.652.729-.535-.014-.584-.283-.577-.7.016-.881,0-1.763.006-2.645" transform="translate(-391.712 -139.764)" fill="#fff"/>
      <path id="Path_6955" data-name="Path 6955" d="M620.567,170.822c-2.566-.035-3.84,1.283-3.847,3.979-.007,2.534,1.171,3.742,3.664,3.757,2.4.014,3.673-1.34,3.681-3.914q.011-3.776-3.5-3.822m2.067,5.167c-.267,1.26-1.025,1.756-2.522,1.694a1.934,1.934,0,0,1-2.047-1.866,5.7,5.7,0,0,1,.191-2.717,2,2,0,0,1,2.22-1.4,1.938,1.938,0,0,1,2.092,1.559c.1.463.148.937.212,1.352a13.472,13.472,0,0,1-.147,1.374" transform="translate(-501.527 -138.915)" fill="#fff"/>
      <path id="Path_6956" data-name="Path 6956" d="M685.939,175.759c1.268-.779,1.676-1.513,1.374-2.517-.345-1.149-1.254-1.417-2.331-1.4-1.142.015-2.284.015-3.425-.006-.442-.008-.66.078-.654.6.027,2.058.019,4.117,0,6.175,0,.408.091.591.542.594s.672-.116.646-.617c-.035-.66.009-1.323-.013-1.984-.015-.463.155-.625.634-.665,2.056-.172,2.92.462,3.208,2.432.016.109.036.218.041.328.031.65.522.47.9.493.568.035.405-.328.376-.657-.1-1.076-.207-2.135-1.3-2.767m-.933-.629a7.8,7.8,0,0,1-1.322.015c0,.007,0,.014,0,.022a.556.556,0,0,1-.11,0c-.484-.1-1.227.289-1.412-.228a6.3,6.3,0,0,1-.059-2.073.269.269,0,0,1,.276-.284,8.683,8.683,0,0,1,2.95.15,1.1,1.1,0,0,1,.763,1.3,1.262,1.262,0,0,1-1.084,1.1" transform="translate(-553.722 -139.736)" fill="#fff"/>
    </g>
  </g>
</svg>
