<svg id="Group_10939" data-name="Group 10939" xmlns="http://www.w3.org/2000/svg" xmlns:xlink="http://www.w3.org/1999/xlink" width="36.912" height="36.905" viewBox="0 0 36.912 36.905">
  <defs>
    <clipPath id="clip-path">
      <rect id="Rectangle_5741" data-name="Rectangle 5741" width="36.912" height="36.905" fill="#fff"/>
    </clipPath>
  </defs>
  <g id="Group_10937" data-name="Group 10937" clip-path="url(#clip-path)">
    <path id="Path_6118" data-name="Path 6118" d="M.853,362.927a1.251,1.251,0,0,1-.7-.773,1.1,1.1,0,0,1,1.026-1.41c.084,0,.168,0,.252,0q17.136,0,34.272-.007a1.27,1.27,0,0,1,1.3.753c0,.432-.006.863,0,1.295,0,.121-.017.172-.147.147a.957.957,0,0,0-.18,0Z" transform="translate(-0.095 -326.03)" fill="#fff"/>
    <path id="Path_6119" data-name="Path 6119" d="M.015,13.52a1.1,1.1,0,0,1,.4-.893c.424-.372.843-.75,1.284-1.1a.646.646,0,0,0,.269-.618,3.126,3.126,0,0,1,0-.79A1.093,1.093,0,0,0,1.435,8.97,12.159,12.159,0,0,1,.4,8.078a1.073,1.073,0,0,1-.234-1.4q.844-1.508,1.727-2.993a1.085,1.085,0,0,1,1.366-.492c.559.182,1.113.378,1.665.58a.572.572,0,0,0,.57-.077,6.461,6.461,0,0,1,.965-.557.638.638,0,0,0,.4-.54c.092-.531.192-1.062.3-1.591a1.108,1.108,0,0,1,1.2-1Q9.988,0,11.626,0A1.123,1.123,0,0,1,12.868,1.04c.1.53.206,1.059.294,1.591a.579.579,0,0,0,.364.487,5.032,5.032,0,0,1,1,.575.58.58,0,0,0,.606.067q.776-.288,1.561-.549a1.113,1.113,0,0,1,1.471.539c.564.949,1.114,1.906,1.66,2.866a1.109,1.109,0,0,1-.236,1.495c-.425.388-.865.761-1.309,1.127a.557.557,0,0,0-.227.493c.015.419.015.84,0,1.26a.562.562,0,0,0,.222.5c.408.336.807.681,1.207,1.026A1.168,1.168,0,0,1,19.77,14.2q-.78,1.357-1.563,2.714a1.14,1.14,0,0,1-1.543.59c-.511-.172-1.022-.348-1.527-.538a.633.633,0,0,0-.639.077,7.323,7.323,0,0,1-.933.54.649.649,0,0,0-.409.536c-.079.521-.188,1.038-.287,1.556a1.126,1.126,0,0,1-1.27,1.048q-1.584,0-3.168,0a1.123,1.123,0,0,1-1.29-1.062c-.1-.518-.2-1.036-.29-1.555a.613.613,0,0,0-.385-.51,6.316,6.316,0,0,1-.964-.557.6.6,0,0,0-.6-.077c-.506.188-1.017.362-1.528.535a1.135,1.135,0,0,1-1.551-.564c-.539-.922-1.07-1.848-1.6-2.773a1.105,1.105,0,0,1-.2-.638m6.656-3.213a3.25,3.25,0,0,0,3.307,3.382,3.264,3.264,0,0,0,3.367-3.325,3.337,3.337,0,0,0-6.674-.057" transform="translate(0 0)" fill="#fff"/>
    <path id="Path_6120" data-name="Path 6120" d="M307.377,85.181q0,5.974,0,11.948c0,.5,0,.5-.492.5h-5.9c-.47,0-.476,0-.476-.49q0-11.912,0-23.824a1.2,1.2,0,0,1,1.376-1.364q2.105,0,4.211,0a1.135,1.135,0,0,1,1.283,1.284q0,5.974,0,11.948" transform="translate(-271.596 -65.026)" fill="#fff"/>
    <path id="Path_6121" data-name="Path 6121" d="M204.461,199.83q0-3.059,0-6.118c0-.913.406-1.319,1.314-1.32q2.141,0,4.282,0a1.144,1.144,0,0,1,1.277,1.263c0,4.126,0,8.253.008,12.379,0,.34-.1.458-.45.455q-3-.021-6.01,0c-.336,0-.429-.112-.427-.435.011-2.075.006-4.15.006-6.226" transform="translate(-184.786 -173.882)" fill="#fff"/>
    <path id="Path_6122" data-name="Path 6122" d="M114.928,245.452c0,1.307-.009,2.615.006,3.922,0,.332-.078.463-.438.46q-3-.023-6.008,0c-.329,0-.44-.1-.438-.431.009-2.59,0-5.181.008-7.771a1.166,1.166,0,0,1,1.307-1.281q2.141,0,4.281,0a1.142,1.142,0,0,1,1.281,1.289q0,1.907,0,3.814" transform="translate(-97.655 -217.225)" fill="#fff"/>
    <path id="Path_6123" data-name="Path 6123" d="M15.5,282.318c-1.008,0-2.015-.008-3.023.005-.291,0-.4-.085-.4-.388.012-1.487,0-2.975.008-4.462a1.106,1.106,0,0,1,1.121-1.161q2.3-.031,4.606,0a1.112,1.112,0,0,1,1.134,1.158c.022,1.511.006,3.023.01,4.534,0,.261-.132.319-.363.317-1.031-.007-2.063,0-3.095,0" transform="translate(-10.914 -249.717)" fill="#fff"/>
    <path id="Path_6124" data-name="Path 6124" d="M92.045,97.057a1.288,1.288,0,0,1-1.26-1.266,1.273,1.273,0,0,1,1.28-1.278,1.272,1.272,0,1,1-.02,2.544" transform="translate(-82.051 -85.42)" fill="#fff"/>
  </g>
</svg>
