<svg xmlns="http://www.w3.org/2000/svg" xmlns:xlink="http://www.w3.org/1999/xlink" width="27.153" height="27.124" viewBox="0 0 27.153 27.124">
  <defs>
    <clipPath id="clip-path">
      <rect id="Rectangle_3" data-name="Rectangle 3" width="27.153" height="27.124" fill="#fff"/>
    </clipPath>
  </defs>
  <g id="Group_2" data-name="Group 2" opacity="0.55">
    <g id="Group_1" data-name="Group 1" clip-path="url(#clip-path)">
      <path id="Path_1" data-name="Path 1" d="M21.774,11.413a10.167,10.167,0,0,1-1.831,5.442.789.789,0,0,0,.125,1.217c2.11,2.071,4.19,4.171,6.279,6.263a4.873,4.873,0,0,1,.534.584,1.381,1.381,0,0,1-1.956,1.916,4.719,4.719,0,0,1-.529-.488c-2.109-2.106-4.224-4.206-6.315-6.329a.766.766,0,0,0-1.159-.129A10.861,10.861,0,1,1,10.192.023c6.178-.4,11.542,4.5,11.582,11.39M2.867,10.831a8.031,8.031,0,0,0,7.956,8.1,8.13,8.13,0,0,0,8.139-8.109,8.031,8.031,0,0,0-8.071-7.987,7.941,7.941,0,0,0-8.025,7.994" transform="translate(0 0)" fill="#fff"/>
    </g>
  </g>
</svg>
