<svg xmlns="http://www.w3.org/2000/svg" xmlns:xlink="http://www.w3.org/1999/xlink" width="26.518" height="23.161" viewBox="0 0 26.518 23.161">
  <defs>
    <clipPath id="clip-path">
      <rect id="Rectangle_5739" data-name="Rectangle 5739" width="26.518" height="23.161" fill="#fff"/>
    </clipPath>
  </defs>
  <g id="Group_10933" data-name="Group 10933" clip-path="url(#clip-path)">
    <path id="Path_6113" data-name="Path 6113" d="M86.431,15.822c0,.885-.007,1.771,0,2.656,0,.238-.074.315-.313.312-.833-.012-1.666-.007-2.5,0a.846.846,0,0,1-.443-.124q-3.02-1.747-6.043-3.487c-.185-.106-.235-.186-.124-.4a3.564,3.564,0,0,0-1.291-4.738,11.246,11.246,0,0,1-3.388-3.072,10.333,10.333,0,0,1-1.515-3.208.5.5,0,0,1,.057-.418Q71.7,1.924,72.517.5a.807.807,0,0,1,.754-.5A.828.828,0,0,1,74,.54a8.1,8.1,0,0,0,3.853,3.7A8.028,8.028,0,0,0,81.41,5c.174,0,.347-.008.521,0a.748.748,0,0,1,.734.832A7.352,7.352,0,0,0,82.63,7.39c.02.215-.058.31-.267.357-.652.145-1.3.3-1.949.463a.664.664,0,0,0-.548.586.689.689,0,0,0,.9.763c.643-.146,1.286-.292,1.924-.457a.275.275,0,0,1,.391.2c.257.646.265.644-.321,1.009-.413.257-.828.509-1.239.769a.725.725,0,0,0-.382.834.7.7,0,0,0,1.053.39c.577-.337,1.144-.692,1.7-1.055.182-.118.285-.112.431.059.377.443.385.434,0,.893-.273.326-.545.653-.812.984a.7.7,0,0,0,.053,1.039.7.7,0,0,0,1.031-.149c.355-.427.71-.854,1.055-1.29a.282.282,0,0,1,.416-.09.593.593,0,0,1,.373.629c-.024.833-.008,1.666-.008,2.5" transform="translate(-65.871 0.001)" fill="#fff"/>
    <path id="Path_6114" data-name="Path 6114" d="M3.577,160c-.788-.455-1.573-.917-2.366-1.363a2.191,2.191,0,0,1-1.095-1.2,1.976,1.976,0,0,1,.124-1.613c.117-.223.263-.431.371-.657.1-.206.207-.2.385-.1,1.146.67,2.3,1.332,3.447,2q6.245,3.606,12.489,7.212a1.248,1.248,0,0,0,.65.147q4.244,0,8.488,0c.43,0,.436,0,.429.442a4.423,4.423,0,0,1-.042.959,1.967,1.967,0,0,1-1.934,1.55q-7.473,0-14.946,0a.749.749,0,1,1-.008-1.493q1.927,0,3.854,0h.251l.011-.044c-.545-.316-1.108-.605-1.63-.955a2.737,2.737,0,0,0-1.639-.433c-2.361.025-4.721.011-7.082.01a.733.733,0,0,1-.824-.711.721.721,0,0,1,.752-.781c.885-.006,1.771,0,2.656,0,.9,0,1.8,0,2.717-.044-.551-.319-1.121-.611-1.648-.965a2.651,2.651,0,0,0-1.616-.423c-1.527.03-3.055.012-4.583.008a.746.746,0,1,1-.032-1.49c.842-.007,1.684,0,2.526,0h.284L3.577,160" transform="translate(0 -144.211)" fill="#fff"/>
    <path id="Path_6115" data-name="Path 6115" d="M30.275,84.161a2.133,2.133,0,0,1-.206.964c-.093.216-.2.232-.4.116-1.213-.71-2.432-1.409-3.649-2.112q-2.073-1.2-4.146-2.4c-.3-.174-.3-.176-.132-.464q1.061-1.837,2.123-3.673c.05-.086.077-.229.188-.227s.124.15.162.24A11.554,11.554,0,0,0,29,82.12a2.453,2.453,0,0,1,1.2,1.407,1.882,1.882,0,0,1,.079.634" transform="translate(-20.129 -71.057)" fill="#fff"/>
    <path id="Path_6116" data-name="Path 6116" d="M315.434,188.429c0-.867.006-1.735,0-2.6,0-.241.068-.322.323-.334a4.083,4.083,0,0,1,4.2,3.525,17.368,17.368,0,0,1,.031,2.183c0,.166-.115.167-.233.167h-1.613c-.8,0-1.6-.009-2.394.005-.248,0-.313-.09-.311-.318.008-.876,0-1.752,0-2.628" transform="translate(-293.483 -172.584)" fill="#fff"/>
    <path id="Path_6117" data-name="Path 6117" d="M3.544,312.888c-.911,0-1.821,0-2.732,0a.717.717,0,0,1-.719-.625.746.746,0,0,1,.486-.826.88.88,0,0,1,.308-.039q2.654,0,5.308,0a.748.748,0,1,1,0,1.492c-.885,0-1.769,0-2.654,0Z" transform="translate(-0.079 -289.728)" fill="#fff"/>
  </g>
</svg>
